<svg data-name="Layer 1" xmlns="http://www.w3.org/2000/svg" width="850.53801" height="740.82953" xmlns:xlink="http://www.w3.org/1999/xlink" style=""><rect id="backgroundrect" width="100%" height="100%" x="0" y="0" fill="none" stroke="none" style="--darkreader-inline-stroke: none;" data-darkreader-inline-stroke=""/><g class="currentLayer" style=""><title>Layer 1</title><path d="M766.8780124511719,385.53953677490233 a354.2104,354.2104 0 0 1 -98.85,245.9 q-5.74494,6.015 -11.8,11.74 q-9.225,8.775 -19.07,16.87 a353.93418,353.93418 0 0 1 -217.58,80.69 q-3.97494,0.09000000000000002 -7.98,0.09000000000000002 c-63.43,0 -143.21,-33.87994 -215.61,-80.78 q-8.985,-5.82 -17.81,-11.91 q-4.125,-2.8200000000000003 -8.21,-5.72 a730.42959,730.42959 0 0 1 -79.32,-64.8 a514.11633,514.11633 0 0 1 -45.75,-48.92 c-55.63,-68.62006 -67.9,-130.45 11.41,-143.16 q14.085,-2.25 27.34,-4.8100000000000005 q19.20008,-3.6900000000000004 36.75,-7.97 q23.64,-5.745 44.42005,-12.46 q6.99,-2.25 13.66,-4.59 c65.74,-23.09 109.74,-53.19995 139.69,-85.87 q7.62,-8.295 14.05,-16.79 a236.05512,236.05512 0 0 0 17.83,-27.12 a254.89845,254.89845 0 0 0 18.41,-41.05 l0.27,-0.78 c23.83,-68.74 16.58,-132.5 42.87,-153.84 c112.38,-91.23 252.29,38.69 317.96,191.9 q4.965,11.58 9.34,23.3 q1.965,5.23507 3.79,10.49 q4.79992,13.69491 8.71,27.46 q1.5,5.25 2.86005,10.49 c0.97,3.77 1.9,7.53 2.7600000000000002,11.29 C763.4080124511719,332.71953677490234 766.8780124511719,359.8695567749023 766.8780124511719,385.53953677490233 z" fill="#919191" id="svg_1" style="--darkreader-inline-fill: #1f2223;" data-darkreader-inline-fill="" class="selected" fill-opacity="1" opacity="1"/><path d="M419.57801245117184,740.7395567749023 q-3.97494,0.09000000000000002 -7.98,0.09000000000000002 c-63.43,0 -143.21,-33.87994 -215.61,-80.78 q-8.985,-5.82 -17.81,-11.91 l5.16,-31.4 l156.21,-20.74 l78.4,59.95 z" fill="#2f2e41" id="svg_2" style="--darkreader-inline-fill: #262534;" data-darkreader-inline-fill=""/><path d="M427.09795245117186,180.04961677490235 h-22.26 a2.601,2.601 0 0 0 -2.59985,2.59985 v22.27 a2.5926400000000003,2.5926400000000003 0 0 0 2.59985,2.59009 h22.26 a2.59918,2.59918 0 0 0 2.6001000000000003,-2.59009 v-22.27 A2.60761,2.60761 0 0 0 427.09795245117186,180.04961677490235 z" fill="#fff" id="svg_3" style="--darkreader-inline-fill: #181a1b;" data-darkreader-inline-fill=""/><path d="M427.09795245117186,217.99956677490235 h-22.26 a2.60105,2.60105 0 0 0 -2.59985,2.6 v22.27 a2.59253,2.59253 0 0 0 2.59985,2.59 h22.26 a2.59907,2.59907 0 0 0 2.6001000000000003,-2.59 v-22.27 A2.6076300000000003,2.6076300000000003 0 0 0 427.09795245117186,217.99956677490235 z" fill="#e6e6e6" id="svg_4" style="--darkreader-inline-fill: #26292b;" data-darkreader-inline-fill=""/><path d="M427.09795245117186,255.94951677490235 h-22.26 a2.60116,2.60116 0 0 0 -2.59985,2.6001000000000003 v22.26 a2.59464,2.59464 0 0 0 2.59985,2.59985 h22.26 a2.60116,2.60116 0 0 0 2.6001000000000003,-2.59985 v-22.26 A2.60774,2.60774 0 0 0 427.09795245117186,255.94951677490235 z" fill="#e6e6e6" id="svg_5" style="--darkreader-inline-fill: #26292b;" data-darkreader-inline-fill=""/><path d="M429.6580124511719,296.0396067749023 a2.61714,2.61714 0 0 0 -2.56006,-2.14014 h-22.26 a2.60124,2.60124 0 0 0 -2.59985,2.6001000000000003 v22.26 a2.5947400000000003,2.5947400000000003 0 0 0 2.59985,2.6 h22.26 a2.60126,2.60126 0 0 0 2.6001000000000003,-2.6 v-22.26 A2.31271,2.31271 0 0 0 429.6580124511719,296.0396067749023 z" fill="#e6e6e6" id="svg_6" style="--darkreader-inline-fill: #26292b;" data-darkreader-inline-fill=""/><path d="M428.10801245117193,332.04961677490235 a2.6340000000000003,2.6340000000000003 0 0 0 -1.01,-0.20008 h-22.26 a2.5947500000000003,2.5947500000000003 0 0 0 -2.59985,2.6 v22.26 a2.5883599999999998,2.5883599999999998 0 0 0 2.59985,2.6001000000000003 h22.26 a2.60137,2.60137 0 0 0 2.6001000000000003,-2.6001000000000003 v-22.26 A2.6157500000000002,2.6157500000000002 0 0 0 428.10801245117193,332.04961677490235 z" fill="#e6e6e6" id="svg_7" style="--darkreader-inline-fill: #26292b;" data-darkreader-inline-fill=""/><path d="M473.85801245117193,180.04961677490235 h-22.26 a2.601,2.601 0 0 0 -2.59985,2.59985 v22.27 a2.5926400000000003,2.5926400000000003 0 0 0 2.59985,2.59009 h22.26 a2.59918,2.59918 0 0 0 2.6001000000000003,-2.59009 v-22.27 A2.60761,2.60761 0 0 0 473.85801245117193,180.04961677490235 z" fill="#e6e6e6" id="svg_8" style="--darkreader-inline-fill: #26292b;" data-darkreader-inline-fill=""/><path d="M473.85801245117193,217.99956677490235 h-22.26 a2.60105,2.60105 0 0 0 -2.59985,2.6 v22.27 a2.59253,2.59253 0 0 0 2.59985,2.59 h22.26 a2.59907,2.59907 0 0 0 2.6001000000000003,-2.59 v-22.27 A2.6076300000000003,2.6076300000000003 0 0 0 473.85801245117193,217.99956677490235 z" fill="#d99b29" id="svg_9" style="--darkreader-inline-fill: #ac7a1e;" data-darkreader-inline-fill=""/><path d="M473.85801245117193,255.94951677490235 h-22.26 a2.60116,2.60116 0 0 0 -2.59985,2.6001000000000003 v22.26 a2.59464,2.59464 0 0 0 2.59985,2.59985 h22.26 a2.60116,2.60116 0 0 0 2.6001000000000003,-2.59985 v-22.26 A2.60774,2.60774 0 0 0 473.85801245117193,255.94951677490235 z" fill="#d99b29" id="svg_10" style="--darkreader-inline-fill: #ac7a1e;" data-darkreader-inline-fill=""/><path d="M473.85801245117193,293.89946677490235 h-22.26 a2.59261,2.59261 0 0 0 -2.46,1.78 a2.47846,2.47846 0 0 0 -0.13989000000000001,0.8200700000000001 v22.26 a2.5947400000000003,2.5947400000000003 0 0 0 2.59985,2.6 h22.26 a2.60126,2.60126 0 0 0 2.6001000000000003,-2.6 v-22.26 A2.6078200000000002,2.6078200000000002 0 0 0 473.85801245117193,293.89946677490235 z" fill="#d99b29" id="svg_11" style="--darkreader-inline-fill: #ac7a1e;" data-darkreader-inline-fill=""/><path d="M473.85801245117193,331.84953677490233 h-22.26 a2.5947500000000003,2.5947500000000003 0 0 0 -2.59985,2.6 v22.26 a2.59485,2.59485 0 0 0 2.59985,2.6001000000000003 h22.26 a2.60137,2.60137 0 0 0 2.6001000000000003,-2.6001000000000003 v-22.26 A2.60127,2.60127 0 0 0 473.85801245117193,331.84953677490233 z" fill="#e6e6e6" id="svg_12" style="--darkreader-inline-fill: #26292b;" data-darkreader-inline-fill=""/><path d="M520.6180124511719,180.04961677490235 h-22.26 a2.601,2.601 0 0 0 -2.59985,2.59985 v22.27 a2.5926400000000003,2.5926400000000003 0 0 0 2.59985,2.59009 h22.26 a2.59918,2.59918 0 0 0 2.6001000000000003,-2.59009 v-22.27 A2.60761,2.60761 0 0 0 520.6180124511719,180.04961677490235 z" fill="#d99b29" id="svg_13" style="--darkreader-inline-fill: #ac7a1e;" data-darkreader-inline-fill=""/><path d="M520.6180124511719,217.99956677490235 h-22.26 a2.60105,2.60105 0 0 0 -2.59985,2.6 v22.27 a2.59253,2.59253 0 0 0 2.59985,2.59 h22.26 a2.59907,2.59907 0 0 0 2.6001000000000003,-2.59 v-22.27 A2.6076300000000003,2.6076300000000003 0 0 0 520.6180124511719,217.99956677490235 z" fill="#d99b29" id="svg_14" style="--darkreader-inline-fill: #ac7a1e;" data-darkreader-inline-fill=""/><path d="M520.6180124511719,255.94951677490235 h-22.26 a2.60116,2.60116 0 0 0 -2.59985,2.6001000000000003 v22.26 a2.59464,2.59464 0 0 0 2.59985,2.59985 h22.26 a2.60116,2.60116 0 0 0 2.6001000000000003,-2.59985 v-22.26 A2.60774,2.60774 0 0 0 520.6180124511719,255.94951677490235 z" fill="#e6e6e6" id="svg_15" style="--darkreader-inline-fill: #26292b;" data-darkreader-inline-fill=""/><path d="M520.6180124511719,293.89946677490235 h-22.26 a2.60124,2.60124 0 0 0 -2.59985,2.6001000000000003 v22.26 a2.5947400000000003,2.5947400000000003 0 0 0 2.59985,2.6 h22.26 a2.60126,2.60126 0 0 0 2.6001000000000003,-2.6 v-22.26 A2.6078200000000002,2.6078200000000002 0 0 0 520.6180124511719,293.89946677490235 z" fill="#d99b29" id="svg_16" style="--darkreader-inline-fill: #ac7a1e;" data-darkreader-inline-fill=""/><path d="M520.6180124511719,331.84953677490233 h-22.26 a2.5947500000000003,2.5947500000000003 0 0 0 -2.59985,2.6 v22.26 a2.59485,2.59485 0 0 0 2.59985,2.6001000000000003 h22.26 a2.60137,2.60137 0 0 0 2.6001000000000003,-2.6001000000000003 v-22.26 A2.60127,2.60127 0 0 0 520.6180124511719,331.84953677490233 z" fill="#d99b29" id="svg_17" style="--darkreader-inline-fill: #ac7a1e;" data-darkreader-inline-fill=""/><path d="M567.3780124511719,180.04961677490235 h-22.26 a2.60113,2.60113 0 0 0 -2.6,2.59985 v22.27 a2.59275,2.59275 0 0 0 2.6,2.59009 h22.26 a2.59918,2.59918 0 0 0 2.6001000000000003,-2.59009 v-22.27 A2.60761,2.60761 0 0 0 567.3780124511719,180.04961677490235 z" fill="#d99b29" id="svg_18" style="--darkreader-inline-fill: #ac7a1e;" data-darkreader-inline-fill=""/><path d="M567.3780124511719,217.99956677490235 h-22.26 a2.60116,2.60116 0 0 0 -2.6,2.6 v22.27 a2.5926400000000003,2.5926400000000003 0 0 0 2.6,2.59 h22.26 a2.59907,2.59907 0 0 0 2.6001000000000003,-2.59 v-22.27 A2.6076300000000003,2.6076300000000003 0 0 0 567.3780124511719,217.99956677490235 z" fill="#fff" id="svg_19" style="--darkreader-inline-fill: #181a1b;" data-darkreader-inline-fill=""/><path d="M567.3780124511719,255.94951677490235 h-22.26 a2.60126,2.60126 0 0 0 -2.6,2.6001000000000003 v22.26 a2.5947400000000003,2.5947400000000003 0 0 0 2.6,2.59985 h22.26 a2.60116,2.60116 0 0 0 2.6001000000000003,-2.59985 v-22.26 A2.60774,2.60774 0 0 0 567.3780124511719,255.94951677490235 z" fill="#fff" id="svg_20" style="--darkreader-inline-fill: #181a1b;" data-darkreader-inline-fill=""/><path d="M567.3780124511719,293.89946677490235 h-22.26 a2.60134,2.60134 0 0 0 -2.6,2.6001000000000003 v22.26 a2.59485,2.59485 0 0 0 2.6,2.6 h22.26 a2.60126,2.60126 0 0 0 2.6001000000000003,-2.6 v-22.26 A2.6078200000000002,2.6078200000000002 0 0 0 567.3780124511719,293.89946677490235 z" fill="#e6e6e6" id="svg_21" style="--darkreader-inline-fill: #26292b;" data-darkreader-inline-fill=""/><path d="M567.3780124511719,331.84953677490233 h-22.26 a2.59485,2.59485 0 0 0 -2.6,2.6 v22.26 a2.595,2.595 0 0 0 2.6,2.6001000000000003 h22.26 a2.60137,2.60137 0 0 0 2.6001000000000003,-2.6001000000000003 v-22.26 A2.60127,2.60127 0 0 0 567.3780124511719,331.84953677490233 z" fill="#d99b29" id="svg_22" style="--darkreader-inline-fill: #ac7a1e;" data-darkreader-inline-fill=""/><path d="M614.1380124511719,180.04961677490235 h-22.27 a2.599,2.599 0 0 0 -2.59,2.59985 v22.27 a2.59059,2.59059 0 0 0 2.59,2.59009 h22.27 a2.59918,2.59918 0 0 0 2.6001000000000003,-2.59009 v-22.27 A2.60761,2.60761 0 0 0 614.1380124511719,180.04961677490235 z" fill="#fff" id="svg_23" style="--darkreader-inline-fill: #181a1b;" data-darkreader-inline-fill=""/><path d="M614.1380124511719,217.99956677490235 h-22.27 a2.599,2.599 0 0 0 -2.59,2.6 v22.27 a2.59048,2.59048 0 0 0 2.59,2.59 h22.27 a2.59907,2.59907 0 0 0 2.6001000000000003,-2.59 v-22.27 A2.6076300000000003,2.6076300000000003 0 0 0 614.1380124511719,217.99956677490235 z" fill="#fff" id="svg_24" style="--darkreader-inline-fill: #181a1b;" data-darkreader-inline-fill=""/><path d="M614.1380124511719,255.94951677490235 h-22.27 a2.59915,2.59915 0 0 0 -2.59,2.6001000000000003 v22.26 a2.59261,2.59261 0 0 0 2.59,2.59985 h22.27 a2.60116,2.60116 0 0 0 2.6001000000000003,-2.59985 v-22.26 A2.60774,2.60774 0 0 0 614.1380124511719,255.94951677490235 z" fill="#fff" id="svg_25" style="--darkreader-inline-fill: #181a1b;" data-darkreader-inline-fill=""/><path d="M614.1380124511719,293.89946677490235 h-22.27 a2.59923,2.59923 0 0 0 -2.59,2.6001000000000003 v22.26 a2.5927100000000003,2.5927100000000003 0 0 0 2.59,2.6 h22.27 a2.60126,2.60126 0 0 0 2.6001000000000003,-2.6 v-22.26 A2.6078200000000002,2.6078200000000002 0 0 0 614.1380124511719,293.89946677490235 z" fill="#d99b29" id="svg_26" style="--darkreader-inline-fill: #ac7a1e;" data-darkreader-inline-fill=""/><path d="M614.1380124511719,331.84953677490233 h-22.27 a2.59272,2.59272 0 0 0 -2.59,2.6 v22.26 a2.59282,2.59282 0 0 0 2.59,2.6001000000000003 h22.27 a2.60137,2.60137 0 0 0 2.6001000000000003,-2.6001000000000003 v-22.26 A2.60127,2.60127 0 0 0 614.1380124511719,331.84953677490233 z" fill="#e6e6e6" id="svg_27" style="--darkreader-inline-fill: #26292b;" data-darkreader-inline-fill=""/><path d="M660.8980124511719,180.04961677490235 h-22.27 a2.599,2.599 0 0 0 -2.59,2.59985 v22.27 a2.59059,2.59059 0 0 0 2.59,2.59009 h22.27 a2.59927,2.59927 0 0 0 2.6001000000000003,-2.59009 v-22.27 A2.6076900000000003,2.6076900000000003 0 0 0 660.8980124511719,180.04961677490235 z" fill="#fff" id="svg_28" style="--darkreader-inline-fill: #181a1b;" data-darkreader-inline-fill=""/><path d="M660.8980124511719,217.99956677490235 h-22.27 a2.599,2.599 0 0 0 -2.59,2.6 v22.27 a2.59048,2.59048 0 0 0 2.59,2.59 h22.27 a2.59916,2.59916 0 0 0 2.6001000000000003,-2.59 v-22.27 A2.60772,2.60772 0 0 0 660.8980124511719,217.99956677490235 z" fill="#fff" id="svg_29" style="--darkreader-inline-fill: #181a1b;" data-darkreader-inline-fill=""/><path d="M660.8980124511719,255.94951677490235 h-22.27 a2.59915,2.59915 0 0 0 -2.59,2.6001000000000003 v22.26 a2.59261,2.59261 0 0 0 2.59,2.59985 h22.27 a2.60124,2.60124 0 0 0 2.6001000000000003,-2.59985 v-22.26 A2.6078200000000002,2.6078200000000002 0 0 0 660.8980124511719,255.94951677490235 z" fill="#d99b29" id="svg_30" style="--darkreader-inline-fill: #ac7a1e;" data-darkreader-inline-fill=""/><path d="M660.8980124511719,293.89946677490235 h-22.27 a2.59923,2.59923 0 0 0 -2.59,2.6001000000000003 v22.26 a2.5927100000000003,2.5927100000000003 0 0 0 2.59,2.6 h22.27 a2.60134,2.60134 0 0 0 2.6001000000000003,-2.6 v-22.26 A2.60791,2.60791 0 0 0 660.8980124511719,293.89946677490235 z" fill="#e6e6e6" id="svg_31" style="--darkreader-inline-fill: #26292b;" data-darkreader-inline-fill=""/><path d="M660.8980124511719,331.84953677490233 h-22.27 a2.59272,2.59272 0 0 0 -2.59,2.6 v22.26 a2.59282,2.59282 0 0 0 2.59,2.6001000000000003 h22.27 a2.60146,2.60146 0 0 0 2.6001000000000003,-2.6001000000000003 v-22.26 A2.60135,2.60135 0 0 0 660.8980124511719,331.84953677490233 z" fill="#fff" id="svg_32" style="--darkreader-inline-fill: #181a1b;" data-darkreader-inline-fill=""/><path d="M707.6580124511719,180.04961677490235 h-22.27 a2.599,2.599 0 0 0 -2.59,2.59985 v22.27 a2.59059,2.59059 0 0 0 2.59,2.59009 h22.27 a2.59927,2.59927 0 0 0 2.6001000000000003,-2.59009 v-22.27 A2.6076900000000003,2.6076900000000003 0 0 0 707.6580124511719,180.04961677490235 z" fill="#d99b29" id="svg_33" style="--darkreader-inline-fill: #ac7a1e;" data-darkreader-inline-fill=""/><path d="M707.6580124511719,217.99956677490235 h-22.27 a2.599,2.599 0 0 0 -2.59,2.6 v22.27 a2.59048,2.59048 0 0 0 2.59,2.59 h22.27 a2.59916,2.59916 0 0 0 2.6001000000000003,-2.59 v-22.27 A2.60772,2.60772 0 0 0 707.6580124511719,217.99956677490235 z" fill="#d99b29" id="svg_34" style="--darkreader-inline-fill: #ac7a1e;" data-darkreader-inline-fill=""/><path d="M707.6580124511719,255.94951677490235 h-22.27 a2.59915,2.59915 0 0 0 -2.59,2.6001000000000003 v22.26 a2.59261,2.59261 0 0 0 2.59,2.59985 h22.27 a2.60124,2.60124 0 0 0 2.6001000000000003,-2.59985 v-22.26 A2.6078200000000002,2.6078200000000002 0 0 0 707.6580124511719,255.94951677490235 z" fill="#e6e6e6" id="svg_35" style="--darkreader-inline-fill: #26292b;" data-darkreader-inline-fill=""/><path d="M707.6580124511719,293.89946677490235 h-22.27 a2.59923,2.59923 0 0 0 -2.59,2.6001000000000003 v22.26 a2.5927100000000003,2.5927100000000003 0 0 0 2.59,2.6 h22.27 a2.60134,2.60134 0 0 0 2.6001000000000003,-2.6 v-22.26 A2.60791,2.60791 0 0 0 707.6580124511719,293.89946677490235 z" fill="#fff" id="svg_36" style="--darkreader-inline-fill: #181a1b;" data-darkreader-inline-fill=""/><path d="M707.6580124511719,331.84953677490233 h-22.27 a2.59272,2.59272 0 0 0 -2.59,2.6 v22.26 a2.59282,2.59282 0 0 0 2.59,2.6001000000000003 h22.27 a2.60146,2.60146 0 0 0 2.6001000000000003,-2.6001000000000003 v-22.26 A2.60135,2.60135 0 0 0 707.6580124511719,331.84953677490233 z" fill="#d99b29" id="svg_37" style="--darkreader-inline-fill: #ac7a1e;" data-darkreader-inline-fill=""/><path d="M754.4180124511719,180.04961677490235 h-22.27 a2.599,2.599 0 0 0 -2.59,2.59985 v22.27 a2.59059,2.59059 0 0 0 2.59,2.59009 h22.27 a2.59916,2.59916 0 0 0 2.6,-2.59009 v-22.27 A2.60759,2.60759 0 0 0 754.4180124511719,180.04961677490235 z" fill="#d99b29" id="svg_38" style="--darkreader-inline-fill: #ac7a1e;" data-darkreader-inline-fill=""/><path d="M754.4180124511719,217.99956677490235 h-22.27 a2.599,2.599 0 0 0 -2.59,2.6 v22.27 a2.59048,2.59048 0 0 0 2.59,2.59 h22.27 a2.59906,2.59906 0 0 0 2.6,-2.59 v-22.27 A2.60761,2.60761 0 0 0 754.4180124511719,217.99956677490235 z" fill="#d99b29" id="svg_39" style="--darkreader-inline-fill: #ac7a1e;" data-darkreader-inline-fill=""/><path d="M754.4180124511719,255.94951677490235 h-22.27 a2.59915,2.59915 0 0 0 -2.59,2.6001000000000003 v22.26 a2.59261,2.59261 0 0 0 2.59,2.59985 h22.27 a2.60114,2.60114 0 0 0 2.6,-2.59985 v-22.26 A2.60772,2.60772 0 0 0 754.4180124511719,255.94951677490235 z" fill="#e6e6e6" id="svg_40" style="--darkreader-inline-fill: #26292b;" data-darkreader-inline-fill=""/><path d="M754.4180124511719,293.89946677490235 h-22.27 a2.59923,2.59923 0 0 0 -2.59,2.6001000000000003 v22.26 a2.5927100000000003,2.5927100000000003 0 0 0 2.59,2.6 h22.27 a2.60124,2.60124 0 0 0 2.6,-2.6 v-22.26 A2.6078,2.6078 0 0 0 754.4180124511719,293.89946677490235 z" fill="#d99b29" id="svg_41" style="--darkreader-inline-fill: #ac7a1e;" data-darkreader-inline-fill=""/><path d="M754.4180124511719,331.84953677490233 h-22.27 a2.59272,2.59272 0 0 0 -2.59,2.6 v22.26 a2.59282,2.59282 0 0 0 2.59,2.6001000000000003 h22.27 a2.60135,2.60135 0 0 0 2.6,-2.6001000000000003 v-22.26 A2.6012500000000003,2.6012500000000003 0 0 0 754.4180124511719,331.84953677490233 z" fill="#d99b29" id="svg_42" style="--darkreader-inline-fill: #ac7a1e;" data-darkreader-inline-fill=""/><path d="M801.1780124511719,180.04961677490235 h-22.27 a2.599,2.599 0 0 0 -2.59,2.59985 v22.27 a2.59059,2.59059 0 0 0 2.59,2.59009 h22.27 a2.59916,2.59916 0 0 0 2.6,-2.59009 v-22.27 A2.60759,2.60759 0 0 0 801.1780124511719,180.04961677490235 z" fill="#e6e6e6" id="svg_43" style="--darkreader-inline-fill: #26292b;" data-darkreader-inline-fill=""/><path d="M801.1780124511719,217.99956677490235 h-22.27 a2.599,2.599 0 0 0 -2.59,2.6 v22.27 a2.59048,2.59048 0 0 0 2.59,2.59 h22.27 a2.59906,2.59906 0 0 0 2.6,-2.59 v-22.27 A2.60761,2.60761 0 0 0 801.1780124511719,217.99956677490235 z" fill="#d99b29" id="svg_44" style="--darkreader-inline-fill: #ac7a1e;" data-darkreader-inline-fill=""/><path d="M801.1780124511719,255.94951677490235 h-22.27 a2.59915,2.59915 0 0 0 -2.59,2.6001000000000003 v22.26 a2.59261,2.59261 0 0 0 2.59,2.59985 h22.27 a2.60114,2.60114 0 0 0 2.6,-2.59985 v-22.26 A2.60772,2.60772 0 0 0 801.1780124511719,255.94951677490235 z" fill="#d99b29" id="svg_45" style="--darkreader-inline-fill: #ac7a1e;" data-darkreader-inline-fill=""/><path d="M801.1780124511719,293.89946677490235 h-22.27 a2.59923,2.59923 0 0 0 -2.59,2.6001000000000003 v22.26 a2.5927100000000003,2.5927100000000003 0 0 0 2.59,2.6 h22.27 a2.60124,2.60124 0 0 0 2.6,-2.6 v-22.26 A2.6078,2.6078 0 0 0 801.1780124511719,293.89946677490235 z" fill="#d99b29" id="svg_46" style="--darkreader-inline-fill: #ac7a1e;" data-darkreader-inline-fill=""/><path d="M801.1780124511719,331.84953677490233 h-22.27 a2.59272,2.59272 0 0 0 -2.59,2.6 v22.26 a2.59282,2.59282 0 0 0 2.59,2.6001000000000003 h22.27 a2.60135,2.60135 0 0 0 2.6,-2.6001000000000003 v-22.26 A2.6012500000000003,2.6012500000000003 0 0 0 801.1780124511719,331.84953677490233 z" fill="#e6e6e6" id="svg_47" style="--darkreader-inline-fill: #26292b;" data-darkreader-inline-fill=""/><path d="M847.9380124511719,180.04961677490235 h-22.27 a2.59913,2.59913 0 0 0 -2.59009,2.59985 v22.27 a2.5907,2.5907 0 0 0 2.59009,2.59009 h22.27 a2.59916,2.59916 0 0 0 2.6,-2.59009 v-22.27 A2.60759,2.60759 0 0 0 847.9380124511719,180.04961677490235 z" fill="#e6e6e6" id="svg_48" style="--darkreader-inline-fill: #26292b;" data-darkreader-inline-fill=""/><path d="M847.9380124511719,217.99956677490235 h-22.27 a2.59916,2.59916 0 0 0 -2.59009,2.6 v22.27 a2.59059,2.59059 0 0 0 2.59009,2.59 h22.27 a2.59906,2.59906 0 0 0 2.6,-2.59 v-22.27 A2.60761,2.60761 0 0 0 847.9380124511719,217.99956677490235 z" fill="#e6e6e6" id="svg_49" style="--darkreader-inline-fill: #26292b;" data-darkreader-inline-fill=""/><path d="M847.9380124511719,255.94951677490235 h-22.27 a2.59926,2.59926 0 0 0 -2.59009,2.6001000000000003 v22.26 a2.59272,2.59272 0 0 0 2.59009,2.59985 h22.27 a2.60114,2.60114 0 0 0 2.6,-2.59985 v-22.26 A2.60772,2.60772 0 0 0 847.9380124511719,255.94951677490235 z" fill="#d99b29" id="svg_50" style="--darkreader-inline-fill: #ac7a1e;" data-darkreader-inline-fill=""/><path d="M847.9380124511719,293.89946677490235 h-22.27 a2.59934,2.59934 0 0 0 -2.59009,2.6001000000000003 v22.26 a2.59282,2.59282 0 0 0 2.59009,2.6 h22.27 a2.60124,2.60124 0 0 0 2.6,-2.6 v-22.26 A2.6078,2.6078 0 0 0 847.9380124511719,293.89946677490235 z" fill="#e6e6e6" id="svg_51" style="--darkreader-inline-fill: #26292b;" data-darkreader-inline-fill=""/><path d="M847.9380124511719,331.84953677490233 h-22.27 a2.59283,2.59283 0 0 0 -2.59009,2.6 v22.26 a2.59293,2.59293 0 0 0 2.59009,2.6001000000000003 h22.27 a2.60135,2.60135 0 0 0 2.6,-2.6001000000000003 v-22.26 A2.6012500000000003,2.6012500000000003 0 0 0 847.9380124511719,331.84953677490233 z" fill="#e6e6e6" id="svg_52" style="--darkreader-inline-fill: #26292b;" data-darkreader-inline-fill=""/><polygon points="336.095 660.051 335.475 660.051 336.005 659.981 336.095 660.051" fill="#2f2e41" id="svg_53" style="--darkreader-inline-fill: #c5c0b8;" data-darkreader-inline-fill=""/><circle id="b6132315-04e2-4cdb-a713-107c9cd58b0b" data-name="ab6171fa-7d69-4734-b81c-8dff60f9761b" cx="282.81439208984375" cy="176.73277282714844" r="68.32185363769531" fill="#ffb6b6" style="--darkreader-inline-fill: #5f0000;" data-darkreader-inline-fill=""/><path id="f4304bdd-ba2d-4fff-b404-410205410c5d-139" data-name="bf427902-b9bf-4946-b5d7-5c1c7e04535e" d="M342.64595245117187,126.64035677490233 s17.8694,-34.16091 -21.44383,-37.26649 c0,0 -33.51489,-30.40228 -67.6758,-5.558 c0,0 -18.63322,0 -28.82254,21.08567 c0,0 -14.655,-5.558 -17.87551,9.31661 c0,0 -10.72349,31.05546 0,59.00533 c10.72348,27.94992 14.28537,31.05537 14.28537,31.05537 s-17.6209,-58.59838 25.26991,-61.704 s90.8867,-29.90942 94.46114,4.25144 s8.95329,42.57784 8.95329,42.57784 S383.7475624511719,140.61535677490235 342.64595245117187,126.64035677490233 z" fill="#2f2e41" style="--darkreader-inline-fill: #262534;" data-darkreader-inline-fill=""/><path d="M459.54801245117187,345.10954677490236 l-0.22010000000000002,1.1600000000000001 l-2.47,13.04 l-17.06994,90.2 l-1.01,5.31006 l-2.12,11.23 l-2.8999,15.31994 l-6.43018,33.95008 l-1.8398400000000001,9.73 l-0.6900600000000001,3.6499 l-0.24000000000000002,1.28 l-1.9100000000000001,10.07007 l-0.5800000000000001,3.03991 l-4.66,34.53 l-4.07007,30.09 l13.62012,13.620000000000001 l-8.12012,8.12 l-5.32983,30.53 l0.009890000000000003,0.07007000000000001 H195.9880924511719 q-13.20008,-8.55012 -26.02,-17.63013 l1.79,-13.3999 s6.15991,-23.93006 3.56982,-26.79 c-2.5798300000000003,-2.8600000000000003 -8.24,-7.97 -8.24,-7.97 l7.13013,-16.64 l0.99,-2.30993 l-1.6600000000000001,-34.43006 l-0.039920000000000004,-0.8300000000000001 l-0.55,-11.3501 l-0.07007000000000001,-1.46 l-0.11000000000000001,-2.18994 l-2.11,-43.68006 l-0.04000000000000001,-0.7200900000000001 l-0.6398900000000002,-13.24 l-0.6001000000000001,-12.58984 l-0.26,-5.31006 l-2.56994,-53.13 l-1.7400000000000002,-36.07995 l-1.52,-31.41 l6.11,-2.06994 l65.3501,-22.21009 l27.06982,-35.19006 l56.340090000000004,0.42000000000000004 l27.58008,0.21009000000000003 l46.0199,42.67993 l10.47009,5 l0.08000000000000002,0.04000000000000001 l7.50988,3.59 l19.04,9.09 l20.13013,9.62012 l10.32983,4.92993 z" fill="#cacaca" id="svg_54" style="--darkreader-inline-fill: #363a3d;" data-darkreader-inline-fill=""/><path d="M269.1088624511719,557.5508767749023 a30.28588,30.28588 0 0 1 -40.66389,-22.43 L121.88615245117188,520.0029567749024 l37.0428,-41.902 l95.511,20.7803 a30.45,30.45 0 0 1 14.66891,58.66964 z" fill="#ffb6b6" id="svg_55" style="--darkreader-inline-fill: #5f0000;" data-darkreader-inline-fill=""/><path d="M221.59795245117186,481.3695567749023 a13.52249,13.52249 0 0 0 -7.88989,-4.87 l-43.72,-9.09009 l-4.49,-0.92993 a18.93267,18.93267 0 0 1 -12.53009,-9.07007 a19.16055,19.16055 0 0 1 -2.45,-7.899900000000001 a18.89456,18.89456 0 0 1 0.8900000000000001,-7.48 l15.15,-45.65 l9.82995,-29.62 a41.79215,41.79215 0 0 0 2.09009,-11.05 a43.34878,43.34878 0 0 0 -9.07007,-28.88989 a42.69326,42.69326 0 0 0 -49.01,-13.64014 c-0.25,0.09009000000000003 -0.51,0.19006000000000003 -0.7600000000000001,0.29000000000000004 a42.58322,42.58322 0 0 0 -25.31,28.41 l-10.68,38.85 l-22.03,80.09009 a57.7664,57.7664 0 0 0 48.96,72.67993 l62.97,7.38 l29.14,3.42 a13.49651,13.49651 0 0 0 14.84,-10.73 a4.89544,4.89544 0 0 0 0.11000000000000001,-0.55005 l0.7000000000000001,-4.32007 l5.93006,-36.37988 l0.05993000000000001,-0.37012000000000006 A13.47483,13.47483 0 0 0 221.59795245117186,481.3695567749023 z" fill="#cacaca" id="svg_56" style="--darkreader-inline-fill: #363a3d;" data-darkreader-inline-fill=""/><path d="M336.98257245117185,558.7171167749024 a30.28592,30.28592 0 0 0 37.09449,-27.9402 l103.362,-29.99367 L434.85751245117183,464.52368677490233 l-91.62614,34.04148 a30.45,30.45 0 0 0 -6.2488,60.152 z" fill="#ffb6b6" id="svg_57" style="--darkreader-inline-fill: #5f0000;" data-darkreader-inline-fill=""/><path d="M528.7581124511719,433.6895067749024 L479.59795245117186,320.54961677490235 a42.819,42.819 0 0 0 -20.27,-21.3501 a43.35617,43.35617 0 0 0 -8.7799,-3.2 c-0.4701,-0.12000000000000001 -0.9400700000000001,-0.23 -1.4100000000000001,-0.3200700000000001 a42.1319,42.1319 0 0 0 -19.48,0.36011000000000004 a42.81378,42.81378 0 0 0 -27.34,21.73 a1.00376,1.00376 0 0 0 -0.08000000000000002,0.13989000000000001 a43.10025,43.10025 0 0 0 -0.37012000000000006,38.8501 l0.61011,1.22 l34.74,69.77 a18.90046,18.90046 0 0 1 -10.5,26.18994 l-2.44006,0.8801300000000001 l-43.88,15.84985 a13.4969,13.4969 0 0 0 -8.33,16.79 l0.11000000000000001,0.3501 l12.3,39.35986 c0.05994000000000001,0.18005000000000002 0.11987000000000002,0.36011000000000004 0.18994000000000005,0.54 a7.0543,7.0543 0 0 0 0.4,0.99 a13.481770000000001,13.481770000000001 0 0 0 15.80993,7.53 l23.68006,-6.25 l4.82995,-1.28 l61.15,-16.1499 a57.76037,57.76037 0 0 0 38.22009,-78.86011 z" fill="#cacaca" id="svg_58" style="--darkreader-inline-fill: #363a3d;" data-darkreader-inline-fill=""/><path d="M44.898012451171866,528.6995767749023 a514.11633,514.11633 0 0 0 45.75,48.92 h451.97 a16.44588,16.44588 0 0 1 16.42,16.43 l0.6500000000000001,114.53 a355.4301,355.4301 0 0 0 77.47,-48.53 q9.84,-8.085 19.07,-16.87 q6.045,-5.73 11.8,-11.74 a355.62853,355.62853 0 0 0 68.82,-102.74 z" fill="#3f3d56" id="svg_59" style="--darkreader-inline-fill: #323145;" data-darkreader-inline-fill=""/><path d="M668.0280124511719,631.4395067749024 q-5.74494,6.015 -11.79993,11.74 H560.0180124511719 v-11.74 z" fill="#fff" id="svg_60" style="--darkreader-inline-fill: #181a1b;" data-darkreader-inline-fill=""/><path d="M458.6480124511719,255.94951677490235 a5.53766,5.53766 0 0 0 -4.87,-2.8999 H125.93801245117186 a5.55451,5.55451 0 0 0 -5.54,5.54992 v196.2201 H459.3279324511718 V258.59953677490233 A5.38548,5.38548 0 0 0 458.6480124511719,255.94951677490235 z" fill="#3f3d56" id="svg_61" style="--darkreader-inline-fill: #323145;" data-darkreader-inline-fill=""/><path d="M120.10114245117188,449.50714677490237 V473.72095677490233 a7.64384,7.64384 0 0 0 7.64382,7.6439200000000005 H252.84167245117186 v47.78659 h-1.6618500000000003 a0.9929,0.9929 0 0 0 -0.993,0.99292 v3.32374 a0.9929,0.9929 0 0 0 0.993,0.993 h77.6584 a0.99291,0.99291 0 0 0 0.993,-0.993 v-3.32374 a0.9929,0.9929 0 0 0 -0.993,-0.99292 h-1.6618500000000003 V481.3648767749023 H452.27308245117183 a7.64384,7.64384 0 0 0 7.64382,-7.6439200000000005 V449.50714677490237 z" fill="#3f3d56" id="svg_62" style="--darkreader-inline-fill: #323145;" data-darkreader-inline-fill=""/><circle cx="285.9029235839844" cy="348.7037353515625" r="31.306419372558594" fill="#d99b29" id="svg_63" style="--darkreader-inline-fill: #ac7a1e;" data-darkreader-inline-fill=""/><path d="M365.6680124511719,172.99956677490235 h-5 c0,-37.8 -37.41,-62.57 -75.15,-62.59 a82.38227,82.38227 0 0 0 -16.35,1.59 c-6.06,1.21 -12.35,2.66 -18.53,4.55 c-24.37,7.47 -46.97,21.91 -46.97,56.45 a78.591,78.591 0 0 0 2.54,19.88 l-4.84,1.26 a83.87572,83.87572 0 0 1 -2.7,-21.14 c0,-30.18 12.39,-50.91 33.79,-63.27 c11.25,-6.5 24.98,-10.69 40.71,-12.73 a97.13079,97.13079 0 0 1 19.75,-0.6000000000000001 C336.31801245117185,99.51952677490235 365.6680124511719,132.79954677490235 365.6680124511719,172.99956677490235 z" fill="#d99b29" id="svg_64" style="--darkreader-inline-fill: #ac7a1e;" data-darkreader-inline-fill=""/><path d="M373.9980124511719,175.76952677490235 l-1.97,-14.56 a15.71013,15.71013 0 0 0 -5,-9.56 a15.81566,15.81566 0 0 0 -13.25,-4 l-3.13,0.43000000000000005 a6.52426,6.52426 0 0 0 -4.35,2.5300000000000002 a6.548,6.548 0 0 0 -1.29,4.87 l4.55,33.54 a6.57712,6.57712 0 0 0 5.3,5.57 a6.15442,6.15442 0 0 0 1.22,0.12000000000000001 a6.49883,6.49883 0 0 0 0.8800000000000001,-0.06000000000000001 l3.5,-0.47000000000000003 a15.79135,15.79135 0 0 0 10.74,-6.43 c0.27,-0.38000000000000006 0.53,-0.77 0.77,-1.17005 A16.7484,16.7484 0 0 0 373.9980124511719,175.76952677490235 z" fill="#d99b29" id="svg_65" style="--darkreader-inline-fill: #ac7a1e;" data-darkreader-inline-fill=""/><path d="M348.6280124511719,148.68956677490235 a6.4317,6.4317 0 0 0 -2.33,1.92 a6.548,6.548 0 0 0 -1.29,4.87 l4.55,33.54 a6.57712,6.57712 0 0 0 5.3,5.57 z" fill="#fff" id="svg_66" style="--darkreader-inline-fill: #181a1b;" data-darkreader-inline-fill=""/><path d="M373.9980124511719,175.76952677490235 l-1.97,-14.56 a15.71013,15.71013 0 0 0 -5,-9.56 l4.53,33.37 a6.17592,6.17592 0 0 0 0.41000000000000003,1.56 A16.7484,16.7484 0 0 0 373.9980124511719,175.76952677490235 z" fill="#3f3d56" id="svg_67" style="--darkreader-inline-fill: #323145;" data-darkreader-inline-fill=""/><ellipse cx="327.5136413574219" cy="253.21828651428223" rx="2.5" ry="7" transform="rotate(-7.72549, -204.705, -5.69071)" fill="#3f3d56" id="svg_68" style="--darkreader-inline-fill: #bab4ab;" data-darkreader-inline-fill=""/><ellipse cx="326.9060974121094" cy="234.65165185928345" rx="2.5" ry="7" transform="rotate(-7.72549, -202.312, -6.25736)" fill="#3f3d56" id="svg_69" style="--darkreader-inline-fill: #bab4ab;" data-darkreader-inline-fill=""/><ellipse cx="345.13755798339844" cy="244.2693018913269" rx="2.5" ry="7" transform="rotate(-7.72549, -203.081, -3.63971)" fill="#3f3d56" id="svg_70" style="--darkreader-inline-fill: #bab4ab;" data-darkreader-inline-fill=""/><path d="M285.5180124511719,110.40953677490234 a82.38227,82.38227 0 0 0 -16.35,1.59 c-6.06,1.21 -12.35,2.66 -18.53,4.55 c-9.65,-0.47000000000000003 -16.75,-2.9699999999999998 -18.18,-6.82 c11.25,-6.5 24.98,-10.69 40.71,-12.73 a97.13079,97.13079 0 0 1 19.75,-0.6000000000000001 a5.727,5.727 0 0 1 2.72,3.8200000000000003 C296.1080124511719,103.69957677490234 292.1380124511719,107.39952677490234 285.5180124511719,110.40953677490234 z" fill="#3f3d56" id="svg_71" style="--darkreader-inline-fill: #323145;" data-darkreader-inline-fill=""/><path d="M221.67801245117187,207.69957677490237 l-7.7,-32.01 a6.02367,6.02367 0 0 0 -4.88,-4.55 a6.73326,6.73326 0 0 0 -1,-0.08000000000000002 a6.02576,6.02576 0 0 0 -1.4,0.17 l-2.98,0.7200000000000001 a14.904,14.904 0 0 0 -10.99,17.96 l3.45,14.36 a15.84509,15.84509 0 0 0 5.34,8.62005 a14.045,14.045 0 0 0 1.36,0.97 a14.80921,14.80921 0 0 0 11.37,1.84 l2.9699999999999998,-0.7200000000000001 a5.84014,5.84014 0 0 0 2.17,-1.01 A5.99327,5.99327 0 0 0 221.67801245117187,207.69957677490237 z" fill="#d99b29" id="svg_72" style="--darkreader-inline-fill: #ac7a1e;" data-darkreader-inline-fill=""/><ellipse cx="150.17831420898438" cy="291.142484664917" rx="2.5" ry="7" transform="rotate(-13.5305, -228.451, 16.6193)" fill="#3f3d56" id="svg_73" style="--darkreader-inline-fill: #bab4ab;" data-darkreader-inline-fill=""/><ellipse cx="139.19888305664062" cy="291.8861141204834" rx="2.5" ry="7" transform="rotate(-13.5305, -229.43, 14.3629)" fill="#3f3d56" id="svg_74" style="--darkreader-inline-fill: #bab4ab;" data-darkreader-inline-fill=""/><path d="M222.16801245117188,207.57951677490234 l-7.7,-32.01 a6.53174,6.53174 0 0 0 -5.29,-4.92 l10.51,43.72 A6.5111,6.5111 0 0 0 222.16801245117188,207.57951677490234 z" fill="#fff" id="svg_75" style="--darkreader-inline-fill: #181a1b;" data-darkreader-inline-fill=""/><path d="M194.4680124511719,183.56956677490234 a6.476,6.476 0 0 0 -1.17,-2.45 a14.72545,14.72545 0 0 0 -0.5700000000000001,8.79 l3.45,14.36 a15.84509,15.84509 0 0 0 5.34,8.62005 z" fill="#3f3d56" id="svg_76" style="--darkreader-inline-fill: #323145;" data-darkreader-inline-fill=""/></g></svg>