<svg xmlns="http://www.w3.org/2000/svg" xmlns:xlink="http://www.w3.org/1999/xlink" width="1289" zoomAndPan="magnify" viewBox="0 0 966.75 257.99999" height="344" preserveAspectRatio="xMidYMid meet" version="1.0"><defs><g/></defs><g fill="#ff00ff" fill-opacity="1"><g transform="translate(95.199429, 179.236996)"><g><path d="M 20.109375 -90.828125 C 21.523438 -89.546875 22.234375 -87.890625 22.234375 -85.859375 C 22.234375 -83.835938 21.523438 -82.164062 20.109375 -80.84375 C 18.703125 -79.519531 16.894531 -78.859375 14.6875 -78.859375 C 12.476562 -78.859375 10.664062 -79.519531 9.25 -80.84375 C 7.84375 -82.164062 7.140625 -83.835938 7.140625 -85.859375 C 7.140625 -87.890625 7.84375 -89.546875 9.25 -90.828125 C 10.664062 -92.109375 12.476562 -92.75 14.6875 -92.75 C 16.894531 -92.75 18.703125 -92.109375 20.109375 -90.828125 Z M 19.1875 -69.734375 L 19.1875 6.609375 C 19.1875 13.140625 17.460938 18.144531 14.015625 21.625 C 10.578125 25.113281 5.863281 26.859375 -0.125 26.859375 C -3.75 26.859375 -6.617188 26.414062 -8.734375 25.53125 L -8.734375 17.0625 C -6.347656 17.945312 -3.789062 18.390625 -1.0625 18.390625 C 6.351562 18.390625 10.0625 14.421875 10.0625 6.484375 L 10.0625 -69.734375 Z M 19.1875 -69.734375 "/></g></g></g><g fill="#ff00ff" fill-opacity="1"><g transform="translate(124.44158, 179.236996)"><g><path d="M 54.640625 -28.1875 L 54.640625 -69.734375 L 63.78125 -69.734375 L 63.78125 0 L 55.171875 0 L 55.171875 -12.5625 C 53.316406 -8.414062 50.40625 -5.0625 46.4375 -2.5 C 42.46875 0.0507812 37.972656 1.328125 32.953125 1.328125 C 25.628906 1.328125 19.867188 -0.8125 15.671875 -5.09375 C 11.484375 -9.375 9.390625 -15.789062 9.390625 -24.34375 L 9.390625 -69.734375 L 18.65625 -69.734375 L 18.65625 -26.328125 C 18.65625 -13.273438 24.253906 -6.75 35.453125 -6.75 C 41.015625 -6.75 45.601562 -8.773438 49.21875 -12.828125 C 52.832031 -16.890625 54.640625 -22.007812 54.640625 -28.1875 Z M 54.640625 -28.1875 "/></g></g></g><g fill="#ff00ff" fill-opacity="1"><g transform="translate(198.274699, 179.236996)"><g><path d="M 52.921875 0 L 52.921875 -12.703125 C 50.890625 -8.296875 47.820312 -4.851562 43.71875 -2.375 C 39.625 0.09375 34.882812 1.328125 29.5 1.328125 C 22.269531 1.328125 16.492188 -0.546875 12.171875 -4.296875 C 7.847656 -8.046875 5.6875 -13.050781 5.6875 -19.3125 C 5.6875 -33.164062 16.359375 -40.09375 37.703125 -40.09375 C 40.347656 -40.09375 45.113281 -39.828125 52 -39.296875 L 52 -45.125 C 52 -50.9375 50.519531 -55.472656 47.5625 -58.734375 C 44.613281 -62.003906 40.488281 -63.640625 35.1875 -63.640625 C 29.457031 -63.640625 24.9375 -61.984375 21.625 -58.671875 C 18.320312 -55.367188 16.628906 -50.894531 16.546875 -45.25 L 8.078125 -45.25 C 8.242188 -53.007812 10.796875 -59.25 15.734375 -63.96875 C 20.679688 -68.6875 27.125 -71.046875 35.0625 -71.046875 C 43.175781 -71.046875 49.503906 -68.796875 54.046875 -64.296875 C 58.585938 -59.804688 60.859375 -53.503906 60.859375 -45.390625 L 60.859375 0 Z M 14.546875 -19.578125 C 14.546875 -15.347656 16.046875 -11.929688 19.046875 -9.328125 C 22.046875 -6.722656 25.972656 -5.421875 30.828125 -5.421875 C 37.265625 -5.421875 42.398438 -7.382812 46.234375 -11.3125 C 50.078125 -15.238281 52 -20.460938 52 -26.984375 L 52 -33.203125 C 47.0625 -33.648438 42.429688 -33.875 38.109375 -33.875 C 22.398438 -33.875 14.546875 -29.109375 14.546875 -19.578125 Z M 14.546875 -19.578125 "/></g></g></g><g fill="#ff00ff" fill-opacity="1"><g transform="translate(268.535243, 179.236996)"><g><path d="M 19.3125 -40.625 L 19.3125 0 L 10.0625 0 L 10.0625 -69.734375 L 18.65625 -69.734375 L 18.65625 -56.625 C 20.945312 -61.039062 24.117188 -64.546875 28.171875 -67.140625 C 32.234375 -69.742188 36.734375 -71.046875 41.671875 -71.046875 C 49.085938 -71.046875 54.929688 -68.796875 59.203125 -64.296875 C 63.484375 -59.804688 65.625 -53.457031 65.625 -45.25 L 65.625 0 L 56.359375 0 L 56.359375 -42.078125 C 56.359375 -48.773438 54.859375 -53.929688 51.859375 -57.546875 C 48.867188 -61.171875 44.550781 -62.984375 38.90625 -62.984375 C 33.4375 -62.984375 28.800781 -60.863281 25 -56.625 C 21.207031 -52.394531 19.3125 -47.0625 19.3125 -40.625 Z M 19.3125 -40.625 "/></g></g></g><g fill="#ff00ff" fill-opacity="1"><g transform="translate(343.559213, 179.236996)"><g/></g></g><g fill="#ff00ff" fill-opacity="1"><g transform="translate(371.213552, 179.236996)"><g><path d="M 4.890625 -34.9375 C 4.890625 -45.695312 7.664062 -54.40625 13.21875 -61.0625 C 18.78125 -67.71875 26.238281 -71.046875 35.59375 -71.046875 C 40.96875 -71.046875 45.816406 -69.566406 50.140625 -66.609375 C 54.460938 -63.660156 57.816406 -59.582031 60.203125 -54.375 L 60.203125 -69.734375 L 68.796875 -69.734375 L 68.796875 25.53125 L 59.546875 25.53125 L 59.546875 -14.296875 C 57.160156 -9.347656 53.875 -5.503906 49.6875 -2.765625 C 45.5 -0.0351562 40.800781 1.328125 35.59375 1.328125 C 26.238281 1.328125 18.78125 -2 13.21875 -8.65625 C 7.664062 -15.320312 4.890625 -24.082031 4.890625 -34.9375 Z M 14.296875 -34.9375 C 14.296875 -26.113281 16.34375 -19.207031 20.4375 -14.21875 C 24.539062 -9.238281 30.035156 -6.75 36.921875 -6.75 C 43.710938 -6.75 49.203125 -9.304688 53.390625 -14.421875 C 57.578125 -19.535156 59.671875 -26.375 59.671875 -34.9375 C 59.671875 -43.664062 57.578125 -50.519531 53.390625 -55.5 C 49.203125 -60.488281 43.710938 -62.984375 36.921875 -62.984375 C 30.035156 -62.984375 24.539062 -60.488281 20.4375 -55.5 C 16.34375 -50.519531 14.296875 -43.664062 14.296875 -34.9375 Z M 14.296875 -34.9375 "/></g></g></g><g fill="#ff00ff" fill-opacity="1"><g transform="translate(450.074716, 179.236996)"><g><path d="M 54.640625 -28.1875 L 54.640625 -69.734375 L 63.78125 -69.734375 L 63.78125 0 L 55.171875 0 L 55.171875 -12.5625 C 53.316406 -8.414062 50.40625 -5.0625 46.4375 -2.5 C 42.46875 0.0507812 37.972656 1.328125 32.953125 1.328125 C 25.628906 1.328125 19.867188 -0.8125 15.671875 -5.09375 C 11.484375 -9.375 9.390625 -15.789062 9.390625 -24.34375 L 9.390625 -69.734375 L 18.65625 -69.734375 L 18.65625 -26.328125 C 18.65625 -13.273438 24.253906 -6.75 35.453125 -6.75 C 41.015625 -6.75 45.601562 -8.773438 49.21875 -12.828125 C 52.832031 -16.890625 54.640625 -22.007812 54.640625 -28.1875 Z M 54.640625 -28.1875 "/></g></g></g><g fill="#ff00ff" fill-opacity="1"><g transform="translate(523.907823, 179.236996)"><g><path d="M 19.96875 -90.828125 C 21.382812 -89.546875 22.09375 -87.890625 22.09375 -85.859375 C 22.09375 -83.835938 21.382812 -82.164062 19.96875 -80.84375 C 18.5625 -79.519531 16.753906 -78.859375 14.546875 -78.859375 C 12.347656 -78.859375 10.5625 -79.519531 9.1875 -80.84375 C 7.820312 -82.164062 7.140625 -83.835938 7.140625 -85.859375 C 7.140625 -87.890625 7.820312 -89.546875 9.1875 -90.828125 C 10.5625 -92.109375 12.347656 -92.75 14.546875 -92.75 C 16.753906 -92.75 18.5625 -92.109375 19.96875 -90.828125 Z M 19.3125 0 L 10.0625 0 L 10.0625 -69.734375 L 19.3125 -69.734375 Z M 19.3125 0 "/></g></g></g><g fill="#ff00ff" fill-opacity="1"><g transform="translate(553.28229, 179.236996)"><g><path d="M 19.3125 -40.625 L 19.3125 0 L 10.0625 0 L 10.0625 -69.734375 L 18.65625 -69.734375 L 18.65625 -56.625 C 20.945312 -61.039062 24.117188 -64.546875 28.171875 -67.140625 C 32.234375 -69.742188 36.734375 -71.046875 41.671875 -71.046875 C 49.085938 -71.046875 54.929688 -68.796875 59.203125 -64.296875 C 63.484375 -59.804688 65.625 -53.457031 65.625 -45.25 L 65.625 0 L 56.359375 0 L 56.359375 -42.078125 C 56.359375 -48.773438 54.859375 -53.929688 51.859375 -57.546875 C 48.867188 -61.171875 44.550781 -62.984375 38.90625 -62.984375 C 33.4375 -62.984375 28.800781 -60.863281 25 -56.625 C 21.207031 -52.394531 19.3125 -47.0625 19.3125 -40.625 Z M 19.3125 -40.625 "/></g></g></g><g fill="#ff00ff" fill-opacity="1"><g transform="translate(628.306236, 179.236996)"><g><path d="M 45.90625 -8.859375 L 45.90625 -0.65625 C 42.644531 0.664062 39.296875 1.328125 35.859375 1.328125 C 29.679688 1.328125 24.738281 -0.390625 21.03125 -3.828125 C 17.332031 -7.273438 15.484375 -12.570312 15.484375 -19.71875 L 15.484375 -61.921875 L -0.921875 -61.921875 L -0.921875 -69.734375 L 15.484375 -69.734375 L 15.484375 -90.375 L 24.75 -90.375 L 24.75 -69.734375 L 46.578125 -69.734375 L 46.578125 -61.921875 L 24.75 -61.921875 L 24.75 -21.703125 C 24.75 -11.992188 29.066406 -7.140625 37.703125 -7.140625 C 40.347656 -7.140625 43.082031 -7.710938 45.90625 -8.859375 Z M 45.90625 -8.859375 "/></g></g></g><g fill="#ff00ff" fill-opacity="1"><g transform="translate(678.851513, 179.236996)"><g><path d="M 37.4375 1.328125 C 27.644531 1.328125 19.769531 -2.046875 13.8125 -8.796875 C 7.863281 -15.546875 4.890625 -24.429688 4.890625 -35.453125 C 4.890625 -45.691406 7.910156 -54.179688 13.953125 -60.921875 C 19.992188 -67.671875 27.648438 -71.046875 36.921875 -71.046875 C 46.796875 -71.046875 54.664062 -67.453125 60.53125 -60.265625 C 66.394531 -53.078125 68.929688 -43.882812 68.140625 -32.6875 L 14.15625 -32.6875 C 14.59375 -24.394531 16.863281 -17.863281 20.96875 -13.09375 C 25.070312 -8.332031 30.519531 -5.953125 37.3125 -5.953125 C 43.132812 -5.953125 47.960938 -7.492188 51.796875 -10.578125 C 55.640625 -13.671875 58.132812 -17.992188 59.28125 -23.546875 L 68.40625 -23.546875 C 66.820312 -15.785156 63.269531 -9.695312 57.75 -5.28125 C 52.238281 -0.875 45.46875 1.328125 37.4375 1.328125 Z M 36.78125 -63.90625 C 30.519531 -63.90625 25.335938 -61.65625 21.234375 -57.15625 C 17.128906 -52.65625 14.769531 -46.613281 14.15625 -39.03125 L 58.484375 -39.03125 C 58.046875 -46.882812 55.925781 -52.992188 52.125 -57.359375 C 48.332031 -61.722656 43.21875 -63.90625 36.78125 -63.90625 Z M 36.78125 -63.90625 "/></g></g></g><g fill="#ff00ff" fill-opacity="1"><g transform="translate(752.287659, 179.236996)"><g><path d="M 19.3125 -37.3125 L 19.3125 0 L 10.0625 0 L 10.0625 -69.734375 L 18.65625 -69.734375 L 18.65625 -53.84375 C 21.039062 -59.050781 24.632812 -63.175781 29.4375 -66.21875 C 34.25 -69.257812 39.519531 -70.78125 45.25 -70.78125 L 45.25 -61.125 C 37.75 -61.394531 31.550781 -59.367188 26.65625 -55.046875 C 21.757812 -50.722656 19.3125 -44.8125 19.3125 -37.3125 Z M 19.3125 -37.3125 "/></g></g></g><g fill="#ff00ff" fill-opacity="1"><g transform="translate(798.863411, 179.236996)"><g><path d="M 61.78125 -8.921875 C 55.519531 -2.085938 47.582031 1.328125 37.96875 1.328125 C 28.351562 1.328125 20.4375 -2.085938 14.21875 -8.921875 C 8 -15.765625 4.890625 -24.4375 4.890625 -34.9375 C 4.890625 -45.34375 8 -53.941406 14.21875 -60.734375 C 20.4375 -67.523438 28.351562 -70.921875 37.96875 -70.921875 C 47.582031 -70.921875 55.519531 -67.546875 61.78125 -60.796875 C 68.050781 -54.046875 71.1875 -45.421875 71.1875 -34.921875 C 71.1875 -24.429688 68.050781 -15.765625 61.78125 -8.921875 Z M 37.96875 -6.75 C 44.9375 -6.75 50.648438 -9.304688 55.109375 -14.421875 C 59.566406 -19.535156 61.796875 -26.375 61.796875 -34.9375 C 61.796875 -43.3125 59.566406 -50.054688 55.109375 -55.171875 C 50.648438 -60.285156 44.9375 -62.84375 37.96875 -62.84375 C 31.09375 -62.84375 25.425781 -60.285156 20.96875 -55.171875 C 16.519531 -50.054688 14.296875 -43.3125 14.296875 -34.9375 C 14.296875 -26.375 16.519531 -19.535156 20.96875 -14.421875 C 25.425781 -9.304688 31.09375 -6.75 37.96875 -6.75 Z M 37.96875 -6.75 "/></g></g></g><g fill="#00ffff" fill-opacity="1"><g transform="translate(90.23738, 179.236996)"><g><path d="M 20.109375 -90.828125 C 21.523438 -89.546875 22.234375 -87.890625 22.234375 -85.859375 C 22.234375 -83.835938 21.523438 -82.164062 20.109375 -80.84375 C 18.703125 -79.519531 16.894531 -78.859375 14.6875 -78.859375 C 12.476562 -78.859375 10.664062 -79.519531 9.25 -80.84375 C 7.84375 -82.164062 7.140625 -83.835938 7.140625 -85.859375 C 7.140625 -87.890625 7.84375 -89.546875 9.25 -90.828125 C 10.664062 -92.109375 12.476562 -92.75 14.6875 -92.75 C 16.894531 -92.75 18.703125 -92.109375 20.109375 -90.828125 Z M 19.1875 -69.734375 L 19.1875 6.609375 C 19.1875 13.140625 17.460938 18.144531 14.015625 21.625 C 10.578125 25.113281 5.863281 26.859375 -0.125 26.859375 C -3.75 26.859375 -6.617188 26.414062 -8.734375 25.53125 L -8.734375 17.0625 C -6.347656 17.945312 -3.789062 18.390625 -1.0625 18.390625 C 6.351562 18.390625 10.0625 14.421875 10.0625 6.484375 L 10.0625 -69.734375 Z M 19.1875 -69.734375 "/></g></g></g><g fill="#00ffff" fill-opacity="1"><g transform="translate(119.479531, 179.236996)"><g><path d="M 54.640625 -28.1875 L 54.640625 -69.734375 L 63.78125 -69.734375 L 63.78125 0 L 55.171875 0 L 55.171875 -12.5625 C 53.316406 -8.414062 50.40625 -5.0625 46.4375 -2.5 C 42.46875 0.0507812 37.972656 1.328125 32.953125 1.328125 C 25.628906 1.328125 19.867188 -0.8125 15.671875 -5.09375 C 11.484375 -9.375 9.390625 -15.789062 9.390625 -24.34375 L 9.390625 -69.734375 L 18.65625 -69.734375 L 18.65625 -26.328125 C 18.65625 -13.273438 24.253906 -6.75 35.453125 -6.75 C 41.015625 -6.75 45.601562 -8.773438 49.21875 -12.828125 C 52.832031 -16.890625 54.640625 -22.007812 54.640625 -28.1875 Z M 54.640625 -28.1875 "/></g></g></g><g fill="#00ffff" fill-opacity="1"><g transform="translate(193.31265, 179.236996)"><g><path d="M 52.921875 0 L 52.921875 -12.703125 C 50.890625 -8.296875 47.820312 -4.851562 43.71875 -2.375 C 39.625 0.09375 34.882812 1.328125 29.5 1.328125 C 22.269531 1.328125 16.492188 -0.546875 12.171875 -4.296875 C 7.847656 -8.046875 5.6875 -13.050781 5.6875 -19.3125 C 5.6875 -33.164062 16.359375 -40.09375 37.703125 -40.09375 C 40.347656 -40.09375 45.113281 -39.828125 52 -39.296875 L 52 -45.125 C 52 -50.9375 50.519531 -55.472656 47.5625 -58.734375 C 44.613281 -62.003906 40.488281 -63.640625 35.1875 -63.640625 C 29.457031 -63.640625 24.9375 -61.984375 21.625 -58.671875 C 18.320312 -55.367188 16.628906 -50.894531 16.546875 -45.25 L 8.078125 -45.25 C 8.242188 -53.007812 10.796875 -59.25 15.734375 -63.96875 C 20.679688 -68.6875 27.125 -71.046875 35.0625 -71.046875 C 43.175781 -71.046875 49.503906 -68.796875 54.046875 -64.296875 C 58.585938 -59.804688 60.859375 -53.503906 60.859375 -45.390625 L 60.859375 0 Z M 14.546875 -19.578125 C 14.546875 -15.347656 16.046875 -11.929688 19.046875 -9.328125 C 22.046875 -6.722656 25.972656 -5.421875 30.828125 -5.421875 C 37.265625 -5.421875 42.398438 -7.382812 46.234375 -11.3125 C 50.078125 -15.238281 52 -20.460938 52 -26.984375 L 52 -33.203125 C 47.0625 -33.648438 42.429688 -33.875 38.109375 -33.875 C 22.398438 -33.875 14.546875 -29.109375 14.546875 -19.578125 Z M 14.546875 -19.578125 "/></g></g></g><g fill="#00ffff" fill-opacity="1"><g transform="translate(263.573195, 179.236996)"><g><path d="M 19.3125 -40.625 L 19.3125 0 L 10.0625 0 L 10.0625 -69.734375 L 18.65625 -69.734375 L 18.65625 -56.625 C 20.945312 -61.039062 24.117188 -64.546875 28.171875 -67.140625 C 32.234375 -69.742188 36.734375 -71.046875 41.671875 -71.046875 C 49.085938 -71.046875 54.929688 -68.796875 59.203125 -64.296875 C 63.484375 -59.804688 65.625 -53.457031 65.625 -45.25 L 65.625 0 L 56.359375 0 L 56.359375 -42.078125 C 56.359375 -48.773438 54.859375 -53.929688 51.859375 -57.546875 C 48.867188 -61.171875 44.550781 -62.984375 38.90625 -62.984375 C 33.4375 -62.984375 28.800781 -60.863281 25 -56.625 C 21.207031 -52.394531 19.3125 -47.0625 19.3125 -40.625 Z M 19.3125 -40.625 "/></g></g></g><g fill="#00ffff" fill-opacity="1"><g transform="translate(338.597164, 179.236996)"><g/></g></g><g fill="#00ffff" fill-opacity="1"><g transform="translate(366.251503, 179.236996)"><g><path d="M 4.890625 -34.9375 C 4.890625 -45.695312 7.664062 -54.40625 13.21875 -61.0625 C 18.78125 -67.71875 26.238281 -71.046875 35.59375 -71.046875 C 40.96875 -71.046875 45.816406 -69.566406 50.140625 -66.609375 C 54.460938 -63.660156 57.816406 -59.582031 60.203125 -54.375 L 60.203125 -69.734375 L 68.796875 -69.734375 L 68.796875 25.53125 L 59.546875 25.53125 L 59.546875 -14.296875 C 57.160156 -9.347656 53.875 -5.503906 49.6875 -2.765625 C 45.5 -0.0351562 40.800781 1.328125 35.59375 1.328125 C 26.238281 1.328125 18.78125 -2 13.21875 -8.65625 C 7.664062 -15.320312 4.890625 -24.082031 4.890625 -34.9375 Z M 14.296875 -34.9375 C 14.296875 -26.113281 16.34375 -19.207031 20.4375 -14.21875 C 24.539062 -9.238281 30.035156 -6.75 36.921875 -6.75 C 43.710938 -6.75 49.203125 -9.304688 53.390625 -14.421875 C 57.578125 -19.535156 59.671875 -26.375 59.671875 -34.9375 C 59.671875 -43.664062 57.578125 -50.519531 53.390625 -55.5 C 49.203125 -60.488281 43.710938 -62.984375 36.921875 -62.984375 C 30.035156 -62.984375 24.539062 -60.488281 20.4375 -55.5 C 16.34375 -50.519531 14.296875 -43.664062 14.296875 -34.9375 Z M 14.296875 -34.9375 "/></g></g></g><g fill="#00ffff" fill-opacity="1"><g transform="translate(445.112668, 179.236996)"><g><path d="M 54.640625 -28.1875 L 54.640625 -69.734375 L 63.78125 -69.734375 L 63.78125 0 L 55.171875 0 L 55.171875 -12.5625 C 53.316406 -8.414062 50.40625 -5.0625 46.4375 -2.5 C 42.46875 0.0507812 37.972656 1.328125 32.953125 1.328125 C 25.628906 1.328125 19.867188 -0.8125 15.671875 -5.09375 C 11.484375 -9.375 9.390625 -15.789062 9.390625 -24.34375 L 9.390625 -69.734375 L 18.65625 -69.734375 L 18.65625 -26.328125 C 18.65625 -13.273438 24.253906 -6.75 35.453125 -6.75 C 41.015625 -6.75 45.601562 -8.773438 49.21875 -12.828125 C 52.832031 -16.890625 54.640625 -22.007812 54.640625 -28.1875 Z M 54.640625 -28.1875 "/></g></g></g><g fill="#00ffff" fill-opacity="1"><g transform="translate(518.945775, 179.236996)"><g><path d="M 19.96875 -90.828125 C 21.382812 -89.546875 22.09375 -87.890625 22.09375 -85.859375 C 22.09375 -83.835938 21.382812 -82.164062 19.96875 -80.84375 C 18.5625 -79.519531 16.753906 -78.859375 14.546875 -78.859375 C 12.347656 -78.859375 10.5625 -79.519531 9.1875 -80.84375 C 7.820312 -82.164062 7.140625 -83.835938 7.140625 -85.859375 C 7.140625 -87.890625 7.820312 -89.546875 9.1875 -90.828125 C 10.5625 -92.109375 12.347656 -92.75 14.546875 -92.75 C 16.753906 -92.75 18.5625 -92.109375 19.96875 -90.828125 Z M 19.3125 0 L 10.0625 0 L 10.0625 -69.734375 L 19.3125 -69.734375 Z M 19.3125 0 "/></g></g></g><g fill="#00ffff" fill-opacity="1"><g transform="translate(548.320242, 179.236996)"><g><path d="M 19.3125 -40.625 L 19.3125 0 L 10.0625 0 L 10.0625 -69.734375 L 18.65625 -69.734375 L 18.65625 -56.625 C 20.945312 -61.039062 24.117188 -64.546875 28.171875 -67.140625 C 32.234375 -69.742188 36.734375 -71.046875 41.671875 -71.046875 C 49.085938 -71.046875 54.929688 -68.796875 59.203125 -64.296875 C 63.484375 -59.804688 65.625 -53.457031 65.625 -45.25 L 65.625 0 L 56.359375 0 L 56.359375 -42.078125 C 56.359375 -48.773438 54.859375 -53.929688 51.859375 -57.546875 C 48.867188 -61.171875 44.550781 -62.984375 38.90625 -62.984375 C 33.4375 -62.984375 28.800781 -60.863281 25 -56.625 C 21.207031 -52.394531 19.3125 -47.0625 19.3125 -40.625 Z M 19.3125 -40.625 "/></g></g></g><g fill="#00ffff" fill-opacity="1"><g transform="translate(623.344187, 179.236996)"><g><path d="M 45.90625 -8.859375 L 45.90625 -0.65625 C 42.644531 0.664062 39.296875 1.328125 35.859375 1.328125 C 29.679688 1.328125 24.738281 -0.390625 21.03125 -3.828125 C 17.332031 -7.273438 15.484375 -12.570312 15.484375 -19.71875 L 15.484375 -61.921875 L -0.921875 -61.921875 L -0.921875 -69.734375 L 15.484375 -69.734375 L 15.484375 -90.375 L 24.75 -90.375 L 24.75 -69.734375 L 46.578125 -69.734375 L 46.578125 -61.921875 L 24.75 -61.921875 L 24.75 -21.703125 C 24.75 -11.992188 29.066406 -7.140625 37.703125 -7.140625 C 40.347656 -7.140625 43.082031 -7.710938 45.90625 -8.859375 Z M 45.90625 -8.859375 "/></g></g></g><g fill="#00ffff" fill-opacity="1"><g transform="translate(673.889464, 179.236996)"><g><path d="M 37.4375 1.328125 C 27.644531 1.328125 19.769531 -2.046875 13.8125 -8.796875 C 7.863281 -15.546875 4.890625 -24.429688 4.890625 -35.453125 C 4.890625 -45.691406 7.910156 -54.179688 13.953125 -60.921875 C 19.992188 -67.671875 27.648438 -71.046875 36.921875 -71.046875 C 46.796875 -71.046875 54.664062 -67.453125 60.53125 -60.265625 C 66.394531 -53.078125 68.929688 -43.882812 68.140625 -32.6875 L 14.15625 -32.6875 C 14.59375 -24.394531 16.863281 -17.863281 20.96875 -13.09375 C 25.070312 -8.332031 30.519531 -5.953125 37.3125 -5.953125 C 43.132812 -5.953125 47.960938 -7.492188 51.796875 -10.578125 C 55.640625 -13.671875 58.132812 -17.992188 59.28125 -23.546875 L 68.40625 -23.546875 C 66.820312 -15.785156 63.269531 -9.695312 57.75 -5.28125 C 52.238281 -0.875 45.46875 1.328125 37.4375 1.328125 Z M 36.78125 -63.90625 C 30.519531 -63.90625 25.335938 -61.65625 21.234375 -57.15625 C 17.128906 -52.65625 14.769531 -46.613281 14.15625 -39.03125 L 58.484375 -39.03125 C 58.046875 -46.882812 55.925781 -52.992188 52.125 -57.359375 C 48.332031 -61.722656 43.21875 -63.90625 36.78125 -63.90625 Z M 36.78125 -63.90625 "/></g></g></g><g fill="#00ffff" fill-opacity="1"><g transform="translate(747.32561, 179.236996)"><g><path d="M 19.3125 -37.3125 L 19.3125 0 L 10.0625 0 L 10.0625 -69.734375 L 18.65625 -69.734375 L 18.65625 -53.84375 C 21.039062 -59.050781 24.632812 -63.175781 29.4375 -66.21875 C 34.25 -69.257812 39.519531 -70.78125 45.25 -70.78125 L 45.25 -61.125 C 37.75 -61.394531 31.550781 -59.367188 26.65625 -55.046875 C 21.757812 -50.722656 19.3125 -44.8125 19.3125 -37.3125 Z M 19.3125 -37.3125 "/></g></g></g><g fill="#00ffff" fill-opacity="1"><g transform="translate(793.901362, 179.236996)"><g><path d="M 61.78125 -8.921875 C 55.519531 -2.085938 47.582031 1.328125 37.96875 1.328125 C 28.351562 1.328125 20.4375 -2.085938 14.21875 -8.921875 C 8 -15.765625 4.890625 -24.4375 4.890625 -34.9375 C 4.890625 -45.34375 8 -53.941406 14.21875 -60.734375 C 20.4375 -67.523438 28.351562 -70.921875 37.96875 -70.921875 C 47.582031 -70.921875 55.519531 -67.546875 61.78125 -60.796875 C 68.050781 -54.046875 71.1875 -45.421875 71.1875 -34.921875 C 71.1875 -24.429688 68.050781 -15.765625 61.78125 -8.921875 Z M 37.96875 -6.75 C 44.9375 -6.75 50.648438 -9.304688 55.109375 -14.421875 C 59.566406 -19.535156 61.796875 -26.375 61.796875 -34.9375 C 61.796875 -43.3125 59.566406 -50.054688 55.109375 -55.171875 C 50.648438 -60.285156 44.9375 -62.84375 37.96875 -62.84375 C 31.09375 -62.84375 25.425781 -60.285156 20.96875 -55.171875 C 16.519531 -50.054688 14.296875 -43.3125 14.296875 -34.9375 C 14.296875 -26.375 16.519531 -19.535156 20.96875 -14.421875 C 25.425781 -9.304688 31.09375 -6.75 37.96875 -6.75 Z M 37.96875 -6.75 "/></g></g></g><g fill="#ffffff" fill-opacity="1"><g transform="translate(92.718406, 179.236996)"><g><path d="M 20.109375 -90.828125 C 21.523438 -89.546875 22.234375 -87.890625 22.234375 -85.859375 C 22.234375 -83.835938 21.523438 -82.164062 20.109375 -80.84375 C 18.703125 -79.519531 16.894531 -78.859375 14.6875 -78.859375 C 12.476562 -78.859375 10.664062 -79.519531 9.25 -80.84375 C 7.84375 -82.164062 7.140625 -83.835938 7.140625 -85.859375 C 7.140625 -87.890625 7.84375 -89.546875 9.25 -90.828125 C 10.664062 -92.109375 12.476562 -92.75 14.6875 -92.75 C 16.894531 -92.75 18.703125 -92.109375 20.109375 -90.828125 Z M 19.1875 -69.734375 L 19.1875 6.609375 C 19.1875 13.140625 17.460938 18.144531 14.015625 21.625 C 10.578125 25.113281 5.863281 26.859375 -0.125 26.859375 C -3.75 26.859375 -6.617188 26.414062 -8.734375 25.53125 L -8.734375 17.0625 C -6.347656 17.945312 -3.789062 18.390625 -1.0625 18.390625 C 6.351562 18.390625 10.0625 14.421875 10.0625 6.484375 L 10.0625 -69.734375 Z M 19.1875 -69.734375 "/></g></g></g><g fill="#ffffff" fill-opacity="1"><g transform="translate(121.960557, 179.236996)"><g><path d="M 54.640625 -28.1875 L 54.640625 -69.734375 L 63.78125 -69.734375 L 63.78125 0 L 55.171875 0 L 55.171875 -12.5625 C 53.316406 -8.414062 50.40625 -5.0625 46.4375 -2.5 C 42.46875 0.0507812 37.972656 1.328125 32.953125 1.328125 C 25.628906 1.328125 19.867188 -0.8125 15.671875 -5.09375 C 11.484375 -9.375 9.390625 -15.789062 9.390625 -24.34375 L 9.390625 -69.734375 L 18.65625 -69.734375 L 18.65625 -26.328125 C 18.65625 -13.273438 24.253906 -6.75 35.453125 -6.75 C 41.015625 -6.75 45.601562 -8.773438 49.21875 -12.828125 C 52.832031 -16.890625 54.640625 -22.007812 54.640625 -28.1875 Z M 54.640625 -28.1875 "/></g></g></g><g fill="#ffffff" fill-opacity="1"><g transform="translate(195.793676, 179.236996)"><g><path d="M 52.921875 0 L 52.921875 -12.703125 C 50.890625 -8.296875 47.820312 -4.851562 43.71875 -2.375 C 39.625 0.09375 34.882812 1.328125 29.5 1.328125 C 22.269531 1.328125 16.492188 -0.546875 12.171875 -4.296875 C 7.847656 -8.046875 5.6875 -13.050781 5.6875 -19.3125 C 5.6875 -33.164062 16.359375 -40.09375 37.703125 -40.09375 C 40.347656 -40.09375 45.113281 -39.828125 52 -39.296875 L 52 -45.125 C 52 -50.9375 50.519531 -55.472656 47.5625 -58.734375 C 44.613281 -62.003906 40.488281 -63.640625 35.1875 -63.640625 C 29.457031 -63.640625 24.9375 -61.984375 21.625 -58.671875 C 18.320312 -55.367188 16.628906 -50.894531 16.546875 -45.25 L 8.078125 -45.25 C 8.242188 -53.007812 10.796875 -59.25 15.734375 -63.96875 C 20.679688 -68.6875 27.125 -71.046875 35.0625 -71.046875 C 43.175781 -71.046875 49.503906 -68.796875 54.046875 -64.296875 C 58.585938 -59.804688 60.859375 -53.503906 60.859375 -45.390625 L 60.859375 0 Z M 14.546875 -19.578125 C 14.546875 -15.347656 16.046875 -11.929688 19.046875 -9.328125 C 22.046875 -6.722656 25.972656 -5.421875 30.828125 -5.421875 C 37.265625 -5.421875 42.398438 -7.382812 46.234375 -11.3125 C 50.078125 -15.238281 52 -20.460938 52 -26.984375 L 52 -33.203125 C 47.0625 -33.648438 42.429688 -33.875 38.109375 -33.875 C 22.398438 -33.875 14.546875 -29.109375 14.546875 -19.578125 Z M 14.546875 -19.578125 "/></g></g></g><g fill="#ffffff" fill-opacity="1"><g transform="translate(266.05422, 179.236996)"><g><path d="M 19.3125 -40.625 L 19.3125 0 L 10.0625 0 L 10.0625 -69.734375 L 18.65625 -69.734375 L 18.65625 -56.625 C 20.945312 -61.039062 24.117188 -64.546875 28.171875 -67.140625 C 32.234375 -69.742188 36.734375 -71.046875 41.671875 -71.046875 C 49.085938 -71.046875 54.929688 -68.796875 59.203125 -64.296875 C 63.484375 -59.804688 65.625 -53.457031 65.625 -45.25 L 65.625 0 L 56.359375 0 L 56.359375 -42.078125 C 56.359375 -48.773438 54.859375 -53.929688 51.859375 -57.546875 C 48.867188 -61.171875 44.550781 -62.984375 38.90625 -62.984375 C 33.4375 -62.984375 28.800781 -60.863281 25 -56.625 C 21.207031 -52.394531 19.3125 -47.0625 19.3125 -40.625 Z M 19.3125 -40.625 "/></g></g></g><g fill="#ffffff" fill-opacity="1"><g transform="translate(341.078189, 179.236996)"><g/></g></g><g fill="#ffffff" fill-opacity="1"><g transform="translate(368.732529, 179.236996)"><g><path d="M 4.890625 -34.9375 C 4.890625 -45.695312 7.664062 -54.40625 13.21875 -61.0625 C 18.78125 -67.71875 26.238281 -71.046875 35.59375 -71.046875 C 40.96875 -71.046875 45.816406 -69.566406 50.140625 -66.609375 C 54.460938 -63.660156 57.816406 -59.582031 60.203125 -54.375 L 60.203125 -69.734375 L 68.796875 -69.734375 L 68.796875 25.53125 L 59.546875 25.53125 L 59.546875 -14.296875 C 57.160156 -9.347656 53.875 -5.503906 49.6875 -2.765625 C 45.5 -0.0351562 40.800781 1.328125 35.59375 1.328125 C 26.238281 1.328125 18.78125 -2 13.21875 -8.65625 C 7.664062 -15.320312 4.890625 -24.082031 4.890625 -34.9375 Z M 14.296875 -34.9375 C 14.296875 -26.113281 16.34375 -19.207031 20.4375 -14.21875 C 24.539062 -9.238281 30.035156 -6.75 36.921875 -6.75 C 43.710938 -6.75 49.203125 -9.304688 53.390625 -14.421875 C 57.578125 -19.535156 59.671875 -26.375 59.671875 -34.9375 C 59.671875 -43.664062 57.578125 -50.519531 53.390625 -55.5 C 49.203125 -60.488281 43.710938 -62.984375 36.921875 -62.984375 C 30.035156 -62.984375 24.539062 -60.488281 20.4375 -55.5 C 16.34375 -50.519531 14.296875 -43.664062 14.296875 -34.9375 Z M 14.296875 -34.9375 "/></g></g></g><g fill="#ffffff" fill-opacity="1"><g transform="translate(447.593693, 179.236996)"><g><path d="M 54.640625 -28.1875 L 54.640625 -69.734375 L 63.78125 -69.734375 L 63.78125 0 L 55.171875 0 L 55.171875 -12.5625 C 53.316406 -8.414062 50.40625 -5.0625 46.4375 -2.5 C 42.46875 0.0507812 37.972656 1.328125 32.953125 1.328125 C 25.628906 1.328125 19.867188 -0.8125 15.671875 -5.09375 C 11.484375 -9.375 9.390625 -15.789062 9.390625 -24.34375 L 9.390625 -69.734375 L 18.65625 -69.734375 L 18.65625 -26.328125 C 18.65625 -13.273438 24.253906 -6.75 35.453125 -6.75 C 41.015625 -6.75 45.601562 -8.773438 49.21875 -12.828125 C 52.832031 -16.890625 54.640625 -22.007812 54.640625 -28.1875 Z M 54.640625 -28.1875 "/></g></g></g><g fill="#ffffff" fill-opacity="1"><g transform="translate(521.4268, 179.236996)"><g><path d="M 19.96875 -90.828125 C 21.382812 -89.546875 22.09375 -87.890625 22.09375 -85.859375 C 22.09375 -83.835938 21.382812 -82.164062 19.96875 -80.84375 C 18.5625 -79.519531 16.753906 -78.859375 14.546875 -78.859375 C 12.347656 -78.859375 10.5625 -79.519531 9.1875 -80.84375 C 7.820312 -82.164062 7.140625 -83.835938 7.140625 -85.859375 C 7.140625 -87.890625 7.820312 -89.546875 9.1875 -90.828125 C 10.5625 -92.109375 12.347656 -92.75 14.546875 -92.75 C 16.753906 -92.75 18.5625 -92.109375 19.96875 -90.828125 Z M 19.3125 0 L 10.0625 0 L 10.0625 -69.734375 L 19.3125 -69.734375 Z M 19.3125 0 "/></g></g></g><g fill="#ffffff" fill-opacity="1"><g transform="translate(550.801267, 179.236996)"><g><path d="M 19.3125 -40.625 L 19.3125 0 L 10.0625 0 L 10.0625 -69.734375 L 18.65625 -69.734375 L 18.65625 -56.625 C 20.945312 -61.039062 24.117188 -64.546875 28.171875 -67.140625 C 32.234375 -69.742188 36.734375 -71.046875 41.671875 -71.046875 C 49.085938 -71.046875 54.929688 -68.796875 59.203125 -64.296875 C 63.484375 -59.804688 65.625 -53.457031 65.625 -45.25 L 65.625 0 L 56.359375 0 L 56.359375 -42.078125 C 56.359375 -48.773438 54.859375 -53.929688 51.859375 -57.546875 C 48.867188 -61.171875 44.550781 -62.984375 38.90625 -62.984375 C 33.4375 -62.984375 28.800781 -60.863281 25 -56.625 C 21.207031 -52.394531 19.3125 -47.0625 19.3125 -40.625 Z M 19.3125 -40.625 "/></g></g></g><g fill="#ffffff" fill-opacity="1"><g transform="translate(625.825213, 179.236996)"><g><path d="M 45.90625 -8.859375 L 45.90625 -0.65625 C 42.644531 0.664062 39.296875 1.328125 35.859375 1.328125 C 29.679688 1.328125 24.738281 -0.390625 21.03125 -3.828125 C 17.332031 -7.273438 15.484375 -12.570312 15.484375 -19.71875 L 15.484375 -61.921875 L -0.921875 -61.921875 L -0.921875 -69.734375 L 15.484375 -69.734375 L 15.484375 -90.375 L 24.75 -90.375 L 24.75 -69.734375 L 46.578125 -69.734375 L 46.578125 -61.921875 L 24.75 -61.921875 L 24.75 -21.703125 C 24.75 -11.992188 29.066406 -7.140625 37.703125 -7.140625 C 40.347656 -7.140625 43.082031 -7.710938 45.90625 -8.859375 Z M 45.90625 -8.859375 "/></g></g></g><g fill="#ffffff" fill-opacity="1"><g transform="translate(676.37049, 179.236996)"><g><path d="M 37.4375 1.328125 C 27.644531 1.328125 19.769531 -2.046875 13.8125 -8.796875 C 7.863281 -15.546875 4.890625 -24.429688 4.890625 -35.453125 C 4.890625 -45.691406 7.910156 -54.179688 13.953125 -60.921875 C 19.992188 -67.671875 27.648438 -71.046875 36.921875 -71.046875 C 46.796875 -71.046875 54.664062 -67.453125 60.53125 -60.265625 C 66.394531 -53.078125 68.929688 -43.882812 68.140625 -32.6875 L 14.15625 -32.6875 C 14.59375 -24.394531 16.863281 -17.863281 20.96875 -13.09375 C 25.070312 -8.332031 30.519531 -5.953125 37.3125 -5.953125 C 43.132812 -5.953125 47.960938 -7.492188 51.796875 -10.578125 C 55.640625 -13.671875 58.132812 -17.992188 59.28125 -23.546875 L 68.40625 -23.546875 C 66.820312 -15.785156 63.269531 -9.695312 57.75 -5.28125 C 52.238281 -0.875 45.46875 1.328125 37.4375 1.328125 Z M 36.78125 -63.90625 C 30.519531 -63.90625 25.335938 -61.65625 21.234375 -57.15625 C 17.128906 -52.65625 14.769531 -46.613281 14.15625 -39.03125 L 58.484375 -39.03125 C 58.046875 -46.882812 55.925781 -52.992188 52.125 -57.359375 C 48.332031 -61.722656 43.21875 -63.90625 36.78125 -63.90625 Z M 36.78125 -63.90625 "/></g></g></g><g fill="#ffffff" fill-opacity="1"><g transform="translate(749.806636, 179.236996)"><g><path d="M 19.3125 -37.3125 L 19.3125 0 L 10.0625 0 L 10.0625 -69.734375 L 18.65625 -69.734375 L 18.65625 -53.84375 C 21.039062 -59.050781 24.632812 -63.175781 29.4375 -66.21875 C 34.25 -69.257812 39.519531 -70.78125 45.25 -70.78125 L 45.25 -61.125 C 37.75 -61.394531 31.550781 -59.367188 26.65625 -55.046875 C 21.757812 -50.722656 19.3125 -44.8125 19.3125 -37.3125 Z M 19.3125 -37.3125 "/></g></g></g><g fill="#ffffff" fill-opacity="1"><g transform="translate(796.382388, 179.236996)"><g><path d="M 61.78125 -8.921875 C 55.519531 -2.085938 47.582031 1.328125 37.96875 1.328125 C 28.351562 1.328125 20.4375 -2.085938 14.21875 -8.921875 C 8 -15.765625 4.890625 -24.4375 4.890625 -34.9375 C 4.890625 -45.34375 8 -53.941406 14.21875 -60.734375 C 20.4375 -67.523438 28.351562 -70.921875 37.96875 -70.921875 C 47.582031 -70.921875 55.519531 -67.546875 61.78125 -60.796875 C 68.050781 -54.046875 71.1875 -45.421875 71.1875 -34.921875 C 71.1875 -24.429688 68.050781 -15.765625 61.78125 -8.921875 Z M 37.96875 -6.75 C 44.9375 -6.75 50.648438 -9.304688 55.109375 -14.421875 C 59.566406 -19.535156 61.796875 -26.375 61.796875 -34.9375 C 61.796875 -43.3125 59.566406 -50.054688 55.109375 -55.171875 C 50.648438 -60.285156 44.9375 -62.84375 37.96875 -62.84375 C 31.09375 -62.84375 25.425781 -60.285156 20.96875 -55.171875 C 16.519531 -50.054688 14.296875 -43.3125 14.296875 -34.9375 C 14.296875 -26.375 16.519531 -19.535156 20.96875 -14.421875 C 25.425781 -9.304688 31.09375 -6.75 37.96875 -6.75 Z M 37.96875 -6.75 "/></g></g></g></svg>